<mxfile host="app.diagrams.net" modified="2023-10-23T10:55:29.948Z" agent="Mozilla/5.0 (Macintosh; Intel Mac OS X 10_15_7) AppleWebKit/537.36 (KHTML, like Gecko) Chrome/118.0.0.0 Safari/537.36" etag="iM3lesN-dEq4CitXzX3S" version="22.0.6" type="device">
  <diagram id="TEZ7Pe_5WkqGIDMatdoA" name="Página-1">
    <mxGraphModel dx="2405" dy="1006" grid="1" gridSize="10" guides="1" tooltips="1" connect="1" arrows="1" fold="1" page="1" pageScale="1" pageWidth="827" pageHeight="1169" math="0" shadow="0">
      <root>
        <mxCell id="0" />
        <mxCell id="1" parent="0" />
        <mxCell id="hWgwiyOItcXFKycyX2Im-15" style="edgeStyle=orthogonalEdgeStyle;rounded=0;orthogonalLoop=1;jettySize=auto;html=1;endArrow=none;endFill=0;" parent="1" source="hWgwiyOItcXFKycyX2Im-4" edge="1">
          <mxGeometry relative="1" as="geometry">
            <mxPoint x="420" y="230" as="targetPoint" />
          </mxGeometry>
        </mxCell>
        <mxCell id="hWgwiyOItcXFKycyX2Im-4" value="SiGNING" style="rounded=0;whiteSpace=wrap;html=1;" parent="1" vertex="1">
          <mxGeometry x="360" y="140" width="120" height="60" as="geometry" />
        </mxCell>
        <mxCell id="hWgwiyOItcXFKycyX2Im-5" value="Contraseña&lt;br&gt;olvidada" style="rounded=0;whiteSpace=wrap;html=1;" parent="1" vertex="1">
          <mxGeometry x="80" y="250" width="120" height="60" as="geometry" />
        </mxCell>
        <mxCell id="hWgwiyOItcXFKycyX2Im-6" value="Registro" style="rounded=0;whiteSpace=wrap;html=1;" parent="1" vertex="1">
          <mxGeometry x="480" y="250" width="120" height="60" as="geometry" />
        </mxCell>
        <mxCell id="hWgwiyOItcXFKycyX2Im-14" style="edgeStyle=orthogonalEdgeStyle;rounded=0;orthogonalLoop=1;jettySize=auto;html=1;exitX=0.5;exitY=0;exitDx=0;exitDy=0;entryX=0.5;entryY=0;entryDx=0;entryDy=0;endArrow=none;endFill=0;" parent="1" source="hWgwiyOItcXFKycyX2Im-7" target="hWgwiyOItcXFKycyX2Im-6" edge="1">
          <mxGeometry relative="1" as="geometry" />
        </mxCell>
        <mxCell id="hWgwiyOItcXFKycyX2Im-17" style="edgeStyle=orthogonalEdgeStyle;rounded=0;orthogonalLoop=1;jettySize=auto;html=1;entryX=1;entryY=0.5;entryDx=0;entryDy=0;endArrow=none;endFill=0;" parent="1" source="hWgwiyOItcXFKycyX2Im-7" target="hWgwiyOItcXFKycyX2Im-5" edge="1">
          <mxGeometry relative="1" as="geometry" />
        </mxCell>
        <mxCell id="hWgwiyOItcXFKycyX2Im-18" style="edgeStyle=orthogonalEdgeStyle;rounded=0;orthogonalLoop=1;jettySize=auto;html=1;exitX=0.5;exitY=1;exitDx=0;exitDy=0;entryX=0.5;entryY=1;entryDx=0;entryDy=0;endArrow=none;endFill=0;" parent="1" source="hWgwiyOItcXFKycyX2Im-7" target="hWgwiyOItcXFKycyX2Im-6" edge="1">
          <mxGeometry relative="1" as="geometry">
            <Array as="points">
              <mxPoint x="300" y="330" />
              <mxPoint x="540" y="330" />
            </Array>
          </mxGeometry>
        </mxCell>
        <mxCell id="hWgwiyOItcXFKycyX2Im-7" value="SINGUP" style="rounded=0;whiteSpace=wrap;html=1;" parent="1" vertex="1">
          <mxGeometry x="240" y="250" width="120" height="60" as="geometry" />
        </mxCell>
        <mxCell id="hWgwiyOItcXFKycyX2Im-19" value="" style="endArrow=classic;html=1;rounded=0;exitX=0.5;exitY=1;exitDx=0;exitDy=0;" parent="1" source="hWgwiyOItcXFKycyX2Im-65" edge="1">
          <mxGeometry width="50" height="50" relative="1" as="geometry">
            <mxPoint x="420" y="330" as="sourcePoint" />
            <mxPoint x="420" y="440" as="targetPoint" />
          </mxGeometry>
        </mxCell>
        <mxCell id="nbpubDEX598SXIXaM9pK-3" value="" style="edgeStyle=orthogonalEdgeStyle;rounded=0;orthogonalLoop=1;jettySize=auto;html=1;" parent="1" source="hWgwiyOItcXFKycyX2Im-20" target="hWgwiyOItcXFKycyX2Im-42" edge="1">
          <mxGeometry relative="1" as="geometry" />
        </mxCell>
        <mxCell id="hWgwiyOItcXFKycyX2Im-20" value="EVENTOS" style="rounded=0;whiteSpace=wrap;html=1;" parent="1" vertex="1">
          <mxGeometry x="120" y="480" width="120" height="60" as="geometry" />
        </mxCell>
        <mxCell id="nbpubDEX598SXIXaM9pK-8" style="edgeStyle=orthogonalEdgeStyle;rounded=0;orthogonalLoop=1;jettySize=auto;html=1;entryX=0.5;entryY=0;entryDx=0;entryDy=0;endArrow=none;endFill=0;" parent="1" source="hWgwiyOItcXFKycyX2Im-21" target="hWgwiyOItcXFKycyX2Im-58" edge="1">
          <mxGeometry relative="1" as="geometry" />
        </mxCell>
        <mxCell id="hWgwiyOItcXFKycyX2Im-21" value="CARTERA" style="rounded=0;whiteSpace=wrap;html=1;" parent="1" vertex="1">
          <mxGeometry x="280" y="480" width="120" height="60" as="geometry" />
        </mxCell>
        <mxCell id="hWgwiyOItcXFKycyX2Im-23" value="MENÚ" style="rounded=0;whiteSpace=wrap;html=1;" parent="1" vertex="1">
          <mxGeometry x="600" y="480" width="120" height="60" as="geometry" />
        </mxCell>
        <mxCell id="hWgwiyOItcXFKycyX2Im-24" value="" style="endArrow=classic;html=1;rounded=0;entryX=0.5;entryY=0;entryDx=0;entryDy=0;" parent="1" target="hWgwiyOItcXFKycyX2Im-20" edge="1">
          <mxGeometry width="50" height="50" relative="1" as="geometry">
            <mxPoint x="180" y="440" as="sourcePoint" />
            <mxPoint x="510" y="560" as="targetPoint" />
          </mxGeometry>
        </mxCell>
        <mxCell id="hWgwiyOItcXFKycyX2Im-25" value="" style="endArrow=classic;html=1;rounded=0;entryX=0.5;entryY=0;entryDx=0;entryDy=0;" parent="1" edge="1">
          <mxGeometry x="-1" y="81" width="50" height="50" relative="1" as="geometry">
            <mxPoint x="339.5" y="440" as="sourcePoint" />
            <mxPoint x="339.5" y="480" as="targetPoint" />
            <mxPoint x="-1" y="-10" as="offset" />
          </mxGeometry>
        </mxCell>
        <mxCell id="hWgwiyOItcXFKycyX2Im-27" value="" style="endArrow=classic;html=1;rounded=0;" parent="1" target="hWgwiyOItcXFKycyX2Im-23" edge="1">
          <mxGeometry x="-1" y="211" width="50" height="50" relative="1" as="geometry">
            <mxPoint x="660" y="440" as="sourcePoint" />
            <mxPoint x="509.5" y="490" as="targetPoint" />
            <mxPoint x="-1" y="-20" as="offset" />
          </mxGeometry>
        </mxCell>
        <mxCell id="hWgwiyOItcXFKycyX2Im-28" value="" style="endArrow=none;html=1;rounded=0;" parent="1" edge="1">
          <mxGeometry width="50" height="50" relative="1" as="geometry">
            <mxPoint x="180" y="440" as="sourcePoint" />
            <mxPoint x="660" y="440" as="targetPoint" />
          </mxGeometry>
        </mxCell>
        <mxCell id="hWgwiyOItcXFKycyX2Im-29" value="MIS DATOS" style="rounded=0;whiteSpace=wrap;html=1;" parent="1" vertex="1">
          <mxGeometry x="440" y="660" width="120" height="60" as="geometry" />
        </mxCell>
        <mxCell id="hWgwiyOItcXFKycyX2Im-62" value="" style="edgeStyle=orthogonalEdgeStyle;rounded=0;orthogonalLoop=1;jettySize=auto;html=1;endArrow=none;endFill=0;entryX=1;entryY=0.5;entryDx=0;entryDy=0;" parent="1" source="hWgwiyOItcXFKycyX2Im-30" target="hWgwiyOItcXFKycyX2Im-58" edge="1">
          <mxGeometry relative="1" as="geometry">
            <Array as="points">
              <mxPoint x="660" y="780" />
            </Array>
          </mxGeometry>
        </mxCell>
        <mxCell id="hWgwiyOItcXFKycyX2Im-30" value="MI CARTERA" style="rounded=0;whiteSpace=wrap;html=1;" parent="1" vertex="1">
          <mxGeometry x="600" y="660" width="120" height="60" as="geometry" />
        </mxCell>
        <mxCell id="hWgwiyOItcXFKycyX2Im-31" value="CONTACTO" style="rounded=0;whiteSpace=wrap;html=1;" parent="1" vertex="1">
          <mxGeometry x="760" y="660" width="120" height="60" as="geometry" />
        </mxCell>
        <mxCell id="hWgwiyOItcXFKycyX2Im-64" value="" style="edgeStyle=orthogonalEdgeStyle;rounded=0;orthogonalLoop=1;jettySize=auto;html=1;endArrow=classic;endFill=1;" parent="1" source="hWgwiyOItcXFKycyX2Im-32" target="hWgwiyOItcXFKycyX2Im-60" edge="1">
          <mxGeometry relative="1" as="geometry" />
        </mxCell>
        <mxCell id="hWgwiyOItcXFKycyX2Im-32" value="MIS APUESTAS" style="rounded=0;whiteSpace=wrap;html=1;" parent="1" vertex="1">
          <mxGeometry x="920" y="660" width="120" height="60" as="geometry" />
        </mxCell>
        <mxCell id="hWgwiyOItcXFKycyX2Im-33" value="" style="endArrow=classic;html=1;rounded=0;entryX=0.5;entryY=0;entryDx=0;entryDy=0;" parent="1" target="hWgwiyOItcXFKycyX2Im-29" edge="1">
          <mxGeometry width="50" height="50" relative="1" as="geometry">
            <mxPoint x="500" y="620" as="sourcePoint" />
            <mxPoint x="830" y="740" as="targetPoint" />
          </mxGeometry>
        </mxCell>
        <mxCell id="hWgwiyOItcXFKycyX2Im-34" value="" style="endArrow=classic;html=1;rounded=0;entryX=0.5;entryY=0;entryDx=0;entryDy=0;" parent="1" edge="1">
          <mxGeometry x="-1" y="81" width="50" height="50" relative="1" as="geometry">
            <mxPoint x="659.5" y="620" as="sourcePoint" />
            <mxPoint x="659.5" y="660" as="targetPoint" />
            <mxPoint x="-1" y="-10" as="offset" />
          </mxGeometry>
        </mxCell>
        <mxCell id="hWgwiyOItcXFKycyX2Im-35" value="" style="endArrow=classic;html=1;rounded=0;entryX=0.5;entryY=0;entryDx=0;entryDy=0;" parent="1" edge="1">
          <mxGeometry x="-1" y="211" width="50" height="50" relative="1" as="geometry">
            <mxPoint x="819.5" y="620" as="sourcePoint" />
            <mxPoint x="819.5" y="660" as="targetPoint" />
            <mxPoint x="-1" y="-20" as="offset" />
          </mxGeometry>
        </mxCell>
        <mxCell id="hWgwiyOItcXFKycyX2Im-36" value="" style="endArrow=classic;html=1;rounded=0;" parent="1" target="hWgwiyOItcXFKycyX2Im-32" edge="1">
          <mxGeometry x="-1" y="211" width="50" height="50" relative="1" as="geometry">
            <mxPoint x="980" y="620" as="sourcePoint" />
            <mxPoint x="829.5" y="670" as="targetPoint" />
            <mxPoint x="-1" y="-20" as="offset" />
          </mxGeometry>
        </mxCell>
        <mxCell id="hWgwiyOItcXFKycyX2Im-37" value="" style="endArrow=none;html=1;rounded=0;" parent="1" edge="1">
          <mxGeometry width="50" height="50" relative="1" as="geometry">
            <mxPoint x="500" y="620" as="sourcePoint" />
            <mxPoint x="980" y="620" as="targetPoint" />
          </mxGeometry>
        </mxCell>
        <mxCell id="hWgwiyOItcXFKycyX2Im-38" value="" style="endArrow=classic;html=1;rounded=0;exitX=0.5;exitY=1;exitDx=0;exitDy=0;" parent="1" source="hWgwiyOItcXFKycyX2Im-23" edge="1">
          <mxGeometry width="50" height="50" relative="1" as="geometry">
            <mxPoint x="640" y="720" as="sourcePoint" />
            <mxPoint x="660" y="620" as="targetPoint" />
          </mxGeometry>
        </mxCell>
        <mxCell id="hWgwiyOItcXFKycyX2Im-51" value="" style="edgeStyle=orthogonalEdgeStyle;rounded=0;orthogonalLoop=1;jettySize=auto;html=1;endArrow=classic;endFill=1;" parent="1" source="hWgwiyOItcXFKycyX2Im-42" target="hWgwiyOItcXFKycyX2Im-43" edge="1">
          <mxGeometry relative="1" as="geometry" />
        </mxCell>
        <mxCell id="hWgwiyOItcXFKycyX2Im-42" value="DETALLES EVENTO" style="rounded=0;whiteSpace=wrap;html=1;" parent="1" vertex="1">
          <mxGeometry x="120" y="630" width="120" height="60" as="geometry" />
        </mxCell>
        <mxCell id="hWgwiyOItcXFKycyX2Im-54" value="" style="edgeStyle=orthogonalEdgeStyle;rounded=0;orthogonalLoop=1;jettySize=auto;html=1;endArrow=classic;endFill=1;" parent="1" source="hWgwiyOItcXFKycyX2Im-43" target="hWgwiyOItcXFKycyX2Im-52" edge="1">
          <mxGeometry relative="1" as="geometry" />
        </mxCell>
        <mxCell id="hWgwiyOItcXFKycyX2Im-43" value="SELECCION DE MERCADO" style="rounded=0;whiteSpace=wrap;html=1;" parent="1" vertex="1">
          <mxGeometry x="120" y="840" width="120" height="60" as="geometry" />
        </mxCell>
        <mxCell id="hWgwiyOItcXFKycyX2Im-52" value="APUESTA" style="rounded=0;whiteSpace=wrap;html=1;" parent="1" vertex="1">
          <mxGeometry x="280" y="840" width="120" height="60" as="geometry" />
        </mxCell>
        <mxCell id="hWgwiyOItcXFKycyX2Im-58" value="AÑADIR DINERO" style="rounded=0;whiteSpace=wrap;html=1;" parent="1" vertex="1">
          <mxGeometry x="280" y="750" width="120" height="60" as="geometry" />
        </mxCell>
        <mxCell id="hWgwiyOItcXFKycyX2Im-65" value="INICIO" style="rounded=0;whiteSpace=wrap;html=1;" parent="1" vertex="1">
          <mxGeometry x="360" y="350" width="120" height="60" as="geometry" />
        </mxCell>
        <mxCell id="hWgwiyOItcXFKycyX2Im-67" value="" style="endArrow=classic;html=1;rounded=0;" parent="1" target="hWgwiyOItcXFKycyX2Im-65" edge="1">
          <mxGeometry width="50" height="50" relative="1" as="geometry">
            <mxPoint x="420" y="330" as="sourcePoint" />
            <mxPoint x="430" y="450" as="targetPoint" />
          </mxGeometry>
        </mxCell>
        <mxCell id="nbpubDEX598SXIXaM9pK-7" value="" style="edgeStyle=orthogonalEdgeStyle;rounded=0;orthogonalLoop=1;jettySize=auto;html=1;entryX=0;entryY=0.5;entryDx=0;entryDy=0;" parent="1" source="nbpubDEX598SXIXaM9pK-4" target="hWgwiyOItcXFKycyX2Im-20" edge="1">
          <mxGeometry relative="1" as="geometry">
            <mxPoint x="-30" y="380" as="targetPoint" />
            <Array as="points">
              <mxPoint x="-30" y="510" />
            </Array>
          </mxGeometry>
        </mxCell>
        <mxCell id="nbpubDEX598SXIXaM9pK-4" value="ADMINISTRADOR" style="rounded=0;whiteSpace=wrap;html=1;" parent="1" vertex="1">
          <mxGeometry x="-90" y="250" width="120" height="60" as="geometry" />
        </mxCell>
        <mxCell id="nbpubDEX598SXIXaM9pK-9" value="" style="edgeStyle=orthogonalEdgeStyle;rounded=0;orthogonalLoop=1;jettySize=auto;html=1;endArrow=classic;endFill=1;entryX=0;entryY=0.5;entryDx=0;entryDy=0;exitX=1;exitY=0.5;exitDx=0;exitDy=0;" parent="1" target="hWgwiyOItcXFKycyX2Im-60" edge="1" source="hWgwiyOItcXFKycyX2Im-52">
          <mxGeometry relative="1" as="geometry">
            <mxPoint x="780" y="960" as="targetPoint" />
            <mxPoint x="560" y="860" as="sourcePoint" />
          </mxGeometry>
        </mxCell>
        <mxCell id="hWgwiyOItcXFKycyX2Im-60" value="DETALLES DE MIS APUESTAS" style="rounded=0;whiteSpace=wrap;html=1;" parent="1" vertex="1">
          <mxGeometry x="920" y="840" width="120" height="60" as="geometry" />
        </mxCell>
        <mxCell id="nbpubDEX598SXIXaM9pK-11" value="" style="endArrow=classic;html=1;rounded=0;exitX=0.25;exitY=0;exitDx=0;exitDy=0;entryX=0.5;entryY=0;entryDx=0;entryDy=0;" parent="1" source="hWgwiyOItcXFKycyX2Im-7" target="nbpubDEX598SXIXaM9pK-4" edge="1">
          <mxGeometry width="50" height="50" relative="1" as="geometry">
            <mxPoint x="430" y="580" as="sourcePoint" />
            <mxPoint x="-60" y="210" as="targetPoint" />
            <Array as="points">
              <mxPoint x="270" y="200" />
              <mxPoint x="-30" y="200" />
            </Array>
          </mxGeometry>
        </mxCell>
      </root>
    </mxGraphModel>
  </diagram>
</mxfile>
